# xmcd
#
# Track frame offsets:
#	150
#	4871
#	11767
#	35725
#	59795
#	85289
#
# Disc length: 1296 seconds
#
# Revision: 0
# Processed by: cddbd v1.5.1PL2 Copyright (c) Steve Scherf et al.
# Submitted via: dBpowerAMP V4.0
#
DISCID=4c050e06
DTITLE=JJ Hamond - Sidewalk
DYEAR=2005
DGENRE=
TTITLE0=Surprise
TTITLE1=Love Poem #30
TTITLE2=A Priest and a Prostitute Autumn
TTITLE3=Largo
TTITLE4=Andante
TTITLE5=Presto
EXTD=
EXTT0=
EXTT1=
EXTT2=
EXTT3=
EXTT4=
EXTT5=
PLAYORDER=
